<?xml version="1.0" standalone="no"?><!DOCTYPE svg PUBLIC "-//W3C//DTD SVG 1.1//EN" "http://www.w3.org/Graphics/SVG/1.1/DTD/svg11.dtd"><svg t="1587107963098" class="icon" viewBox="0 0 1024 1024" version="1.1" xmlns="http://www.w3.org/2000/svg" p-id="49668" xmlns:xlink="http://www.w3.org/1999/xlink" width="200" height="200"><defs><style type="text/css"></style></defs><path d="M418.6 327.9c-17.2 0-31.1 13.9-31.1 31.1 0 17.2 13.9 31.1 31.1 31.1s31.1-13.9 31.1-31.1c0.1-17.2-13.9-31.1-31.1-31.1zM605.4 390.1c17.2 0 31.1-13.9 31.1-31.1 0-17.2-13.9-31.1-31.1-31.1s-31.1 13.9-31.1 31.1c-0.1 17.2 13.9 31.1 31.1 31.1z" p-id="49669"></path><path d="M624.2 570.6c81-41 136.7-124.9 136.7-222 0-137.5-111.5-248.9-248.9-248.9S263.1 211.1 263.1 348.6c0 97.1 55.7 180.9 136.7 222-125.1 44.7-214.5 161.6-214.5 299.2v59.7h363v-59.7H267c0-131.9 109.9-239.2 245-239.2s245 107.3 245 239.2H642.9v59.7h195.8v-59.7c0-137.6-89.4-254.5-214.5-299.2z m-298.9-222c0-102.9 83.7-186.7 186.7-186.7s186.7 83.7 186.7 186.7c0 103-83.7 186.7-186.7 186.7s-186.7-83.7-186.7-186.7z" p-id="49670"></path></svg>