<?xml version="1.0" standalone="no"?><!DOCTYPE svg PUBLIC "-//W3C//DTD SVG 1.1//EN" "http://www.w3.org/Graphics/SVG/1.1/DTD/svg11.dtd"><svg t="1587106487494" class="icon" viewBox="0 0 1024 1024" version="1.1" xmlns="http://www.w3.org/2000/svg" p-id="30446" xmlns:xlink="http://www.w3.org/1999/xlink" width="200" height="200"><defs><style type="text/css"></style></defs><path d="M59.236174 281.310609h-22.26087V835.005217h22.26087c164.797217 0 319.577043 57.344 438.427826 158.72l14.447304 12.332522 14.447305-12.310261c118.850783-101.398261 273.630609-158.742261 438.405565-158.742261h22.260869V281.310609h-22.349913c-168.826435 0-328.013913 56.631652-452.852869 157.384348-124.66087-100.774957-283.848348-157.384348-452.786087-157.384348z m883.46713 44.855652v464.65113c-160.50087 4.763826-311.251478 60.772174-430.592 157.094957-119.340522-96.322783-270.09113-152.33113-430.614261-157.094957V326.166261c156.538435 4.919652 302.747826 61.573565 416.055653 158.386087l14.425043 12.354782 14.469565-12.332521c113.508174-96.834783 259.784348-153.510957 416.278261-158.408348z" fill="#2c2c2c" p-id="30447"></path><path d="M512.111304 325.832348c89.488696 0 162.348522-72.258783 162.348522-161.168696S601.577739 3.494957 512.111304 3.494957c-89.444174 0-162.259478 72.347826-162.259478 161.28s72.704 161.057391 162.259478 161.057391z m0-44.521739c-65.046261 0-117.737739-52.268522-117.737739-116.535652 0-64.289391 52.802783-116.758261 117.737739-116.758261 64.979478 0 117.826783 52.424348 117.826783 116.646956 0 64.222609-52.847304 116.646957-117.826783 116.646957z" fill="#2c2c2c" p-id="30448"></path></svg>