<?xml version="1.0" standalone="no"?><!DOCTYPE svg PUBLIC "-//W3C//DTD SVG 1.1//EN" "http://www.w3.org/Graphics/SVG/1.1/DTD/svg11.dtd"><svg t="1587106565707" class="icon" viewBox="0 0 1024 1024" version="1.1" xmlns="http://www.w3.org/2000/svg" p-id="31902" xmlns:xlink="http://www.w3.org/1999/xlink" width="200" height="200"><defs><style type="text/css"></style></defs><path d="M69.189189 0h885.621622a55.351351 55.351351 0 0 1 55.351351 55.351351v691.891892a55.351351 55.351351 0 0 1-55.351351 55.351352H416.380541a27.675676 27.675676 0 0 0-19.926487 8.496432L226.220973 988.021622a27.675676 27.675676 0 0 1-47.602162-19.179244V830.27027a27.675676 27.675676 0 0 0-27.675676-27.675675H69.189189a55.351351 55.351351 0 0 1-55.351351-55.351352V55.351351a55.351351 55.351351 0 0 1 55.351351-55.351351z m164.780973 900.151351l122.575568-127.446486a83.027027 83.027027 0 0 1 59.834811-25.461622H954.810811V55.351351H69.189189v691.891892h81.753946a83.027027 83.027027 0 0 1 83.027027 83.027027v69.881081z" fill="#2c2c2c" p-id="31903"></path><path d="M512 442.810811a55.351351 55.351351 0 1 1 0-110.702703 55.351351 55.351351 0 0 1 0 110.702703z m221.405405 0a55.351351 55.351351 0 1 1 0-110.702703 55.351351 55.351351 0 0 1 0 110.702703z m-442.81081 0a55.351351 55.351351 0 1 1 0-110.702703 55.351351 55.351351 0 0 1 0 110.702703z" fill="#2c2c2c" p-id="31904"></path></svg>