<?xml version="1.0" standalone="no"?><!DOCTYPE svg PUBLIC "-//W3C//DTD SVG 1.1//EN" "http://www.w3.org/Graphics/SVG/1.1/DTD/svg11.dtd"><svg t="1587107216774" class="icon" viewBox="0 0 1024 1024" version="1.1" xmlns="http://www.w3.org/2000/svg" p-id="39599" xmlns:xlink="http://www.w3.org/1999/xlink" width="200" height="200"><defs><style type="text/css"></style></defs><path d="M612.584356 55.40846a8.099966 8.099966 0 0 1 1.721731 0 95.164813 95.164813 0 0 1-8.334747 45.07807L526.380374 316.563873a136.564638 136.564638 0 0 1-113.477779 96.377852 69.182315 69.182315 0 0 1-24.378158-4.265199 97.825672 97.825672 0 0 1-57.795406-125.21686 437.202491 437.202491 0 0 1 187.825289-189.233979l51.612824-25.630326a102.090871 102.090871 0 0 1 42.417212-13.14777m94.656119 269.177118a95.790898 95.790898 0 0 1 33.338989 5.986931 437.202491 437.202491 0 0 1 189.27311 187.864419l25.630326 51.612825a97.825672 97.825672 0 0 1 13.14777 44.021552 36.273759 36.273759 0 0 1-5.986931 0.430433 117.390806 117.390806 0 0 1-39.130269-8.647789l-215.959952-79.590967c-68.164928-25.121632-110.386488-88.277886-92.112653-137.934197a98.334365 98.334365 0 0 1 91.995262-63.782338m-645.649433 84.834423a117.390806 117.390806 0 0 1 39.130269 8.647789l216.077343 79.590967a160.434101 160.434101 0 0 1 81.312698 64.21277 85.303986 85.303986 0 0 1 10.799955 73.721426 98.216974 98.216974 0 0 1-91.877871 63.782338 95.790898 95.790898 0 0 1-33.338989-5.986931 436.615537 436.615537 0 0 1-189.233979-187.825289l-25.630326-51.612825a97.825672 97.825672 0 0 1-13.14777-44.021552 35.804196 35.804196 0 0 1 5.86954-0.430433m549.897665 201.442623a69.182315 69.182315 0 0 1 24.378157 4.2652 97.825672 97.825672 0 0 1 57.795407 125.216859 437.359013 437.359013 0 0 1-187.825289 189.35137l-51.612825 25.630326a100.995223 100.995223 0 0 1-42.29982 13.14777 8.099966 8.099966 0 0 1-1.721732 0A95.164813 95.164813 0 0 1 418.693874 923.47434l79.590967-216.077344a136.329856 136.329856 0 0 1 113.477779-96.495242M612.584356 9.782567a147.442852 147.442852 0 0 0-62.60843 17.843403l-51.612825 25.630326a476.215369 476.215369 0 0 0-210.520845 214.355611 143.647216 143.647216 0 0 0 84.834423 183.912263 115.199511 115.199511 0 0 0 40.069395 7.043448 179.647063 179.647063 0 0 0 156.521074-126.312507l79.590967-215.920822c24.80859-67.108411 8.334747-106.551722-36.234629-106.551722z m94.656119 269.177118a143.686346 143.686346 0 0 0-134.764645 93.716994c-27.391188 73.956208 26.412931 162.429745 119.151668 196.512209l216.077344 79.590966a163.603653 163.603653 0 0 0 55.017157 11.543429c51.612824 0 67.656234-42.104169 33.769422-110.386488l-25.630326-51.612824a476.215369 476.215369 0 0 0-214.355611-210.520845 140.399404 140.399404 0 0 0-49.265009-8.843441z m-645.649432 84.756162c-51.730215 0-67.656234 42.104169-33.769422 110.386488l25.630326 51.612824a476.215369 476.215369 0 0 0 214.355612 210.520845 141.26027 141.26027 0 0 0 49.147617 8.765181 143.686346 143.686346 0 0 0 134.764645-93.716994c27.391188-73.956208-26.412931-162.429745-119.151668-196.512209L116.686461 375.220146a164.112347 164.112347 0 0 0-55.173679-11.543429z m549.897665 201.520883a179.647063 179.647063 0 0 0-156.521075 126.312508l-79.590966 216.077343c-24.6912 67.108411-8.217356 106.629982 36.312889 106.629982a147.481982 147.481982 0 0 0 62.60843-17.843402l51.612825-25.630326a476.215369 476.215369 0 0 0 210.520845-214.355612 143.647216 143.647216 0 0 0-84.951813-183.912263 113.008216 113.008216 0 0 0-40.069396-7.27823z" p-id="39600"></path></svg>