<?xml version="1.0" standalone="no"?><!DOCTYPE svg PUBLIC "-//W3C//DTD SVG 1.1//EN" "http://www.w3.org/Graphics/SVG/1.1/DTD/svg11.dtd"><svg t="1587104524050" class="icon" viewBox="0 0 1024 1024" version="1.1" xmlns="http://www.w3.org/2000/svg" p-id="6713" xmlns:xlink="http://www.w3.org/1999/xlink" width="200" height="200"><defs><style type="text/css"></style></defs><path d="M502.4 1014.4c-12.8 0-22.4-6.4-22.4-12.8V960h-9.6C249.6 937.6 73.6 755.2 64 531.2v-9.6H22.4c-6.4 0-12.8-9.6-12.8-22.4s6.4-19.2 12.8-19.2H64v-9.6C83.2 256 256 83.2 470.4 64h9.6V22.4c0-6.4 9.6-12.8 22.4-12.8 12.8 0 22.4 6.4 22.4 12.8V64h9.6c224 9.6 406.4 185.6 425.6 409.6v9.6h41.6c6.4 0 12.8 9.6 12.8 22.4 0 12.8-6.4 22.4-12.8 22.4H960v9.6c-9.6 230.4-198.4 416-428.8 428.8h-9.6v41.6c3.2 0-6.4 6.4-19.2 6.4zM768 531.2c-9.6 124.8-112 224-236.8 236.8h-9.6v153.6h9.6c211.2-9.6 377.6-176 387.2-387.2v-9.6H768v6.4z m-662.4 3.2c9.6 198.4 166.4 364.8 364.8 387.2h9.6V768h-9.6c-118.4-19.2-208-115.2-217.6-233.6v-9.6H105.6v9.6z m419.2 192h9.6c99.2-9.6 179.2-89.6 188.8-192v-9.6h-201.6v201.6z m-227.2-192c9.6 92.8 80 169.6 169.6 188.8l12.8 3.2v-201.6H297.6v9.6zM524.8 256h9.6c118.4 9.6 214.4 99.2 233.6 217.6v9.6h153.6v-9.6c-22.4-201.6-188.8-358.4-387.2-368h-9.6V256z m0 224h198.4l-3.2-12.8c-19.2-89.6-96-160-185.6-169.6h-9.6V480z m-54.4-179.2c-83.2 16-150.4 83.2-166.4 166.4l-6.4 12.8H480V300.8h-9.6z m0-192C281.6 128 128 281.6 108.8 470.4v9.6H256v-9.6c16-108.8 105.6-198.4 214.4-214.4h9.6V105.6l-9.6 3.2z" fill="" p-id="6714"></path></svg>